<svg width="33" height="33" viewBox="0 0 33 33" fill="none" xmlns="http://www.w3.org/2000/svg">
<path fill-rule="evenodd" clip-rule="evenodd" d="M27.9027 17.6314C28.4518 17.5558 28.875 17.0781 28.875 16.5002C28.875 15.8696 28.3713 15.3585 27.75 15.3585L7.97509 15.3585L15.1185 8.13816L15.2277 8.01034C15.5554 7.56407 15.5204 6.92973 15.1218 6.52357C14.6834 6.07679 13.9711 6.07529 13.5309 6.52022L4.47185 15.6756C4.41793 15.7281 4.36914 15.7859 4.32632 15.8482C4.01962 16.2941 4.06283 16.9126 4.45592 17.3098L13.5309 26.4798L13.6573 26.5901C14.0984 26.9208 14.7234 26.8826 15.1219 26.4764C15.5603 26.0295 15.5588 25.3067 15.1185 24.8618L7.97331 17.6418L27.75 17.6418L27.9027 17.6314Z" fill="#344054"/>
</svg>
