<svg width="64" height="64" viewBox="0 0 64 64" fill="none" xmlns="http://www.w3.org/2000/svg">
<rect x="3.24292" y="3.24286" width="57.5143" height="57.5143" rx="28.7571" fill="#C4C4C4" stroke="#98A2B3"/>
<path d="M2.74292 32C2.74292 15.8417 15.8418 2.74286 32.0001 2.74286C48.1583 2.74286 61.2572 15.8417 61.2572 32C61.2572 48.1583 48.1583 61.2571 32.0001 61.2571C15.8418 61.2571 2.74292 48.1583 2.74292 32Z" fill="black"/>
<path d="M32.0046 17.61C36.6952 17.61 37.2458 17.6309 39.0998 17.7145C40.8143 17.7912 41.7413 18.0769 42.3616 18.3209C43.184 18.6415 43.7694 19.0178 44.3828 19.6312C44.9961 20.2445 45.3794 20.83 45.6931 21.6524C45.93 22.2727 46.2228 23.1996 46.2994 24.9142C46.3831 26.7681 46.404 27.3187 46.404 32.0093C46.404 36.6999 46.3831 37.2505 46.2994 39.1044C46.2228 40.819 45.937 41.746 45.6931 42.3663C45.3725 43.1887 44.9961 43.7741 44.3828 44.3875C43.7694 45.0008 43.184 45.3841 42.3616 45.6978C41.7413 45.9347 40.8143 46.2274 39.0998 46.3041C37.2458 46.3878 36.6952 46.4087 32.0046 46.4087C27.314 46.4087 26.7634 46.3878 24.9095 46.3041C23.1949 46.2274 22.268 45.9417 21.6477 45.6978C20.8253 45.3771 20.2398 45.0008 19.6265 44.3875C19.0131 43.7741 18.6298 43.1887 18.3162 42.3663C18.0792 41.746 17.7865 40.819 17.7098 39.1044C17.6262 37.2505 17.6053 36.6999 17.6053 32.0093C17.6053 27.3187 17.6262 26.7681 17.7098 24.9142C17.7865 23.1996 18.0722 22.2727 18.3162 21.6524C18.6368 20.83 19.0131 20.2445 19.6265 19.6312C20.2398 19.0178 20.8253 18.6345 21.6477 18.3209C22.268 18.0839 23.1949 17.7912 24.9095 17.7145C26.7634 17.6239 27.321 17.61 32.0046 17.61ZM32.0046 14.4457C27.2374 14.4457 26.638 14.4666 24.7631 14.5503C22.8952 14.6339 21.6198 14.9336 20.5046 15.3657C19.3477 15.8118 18.3719 16.4182 17.3962 17.3939C16.4204 18.3697 15.821 19.3524 15.368 20.5024C14.9359 21.6175 14.6362 22.893 14.5525 24.7678C14.4689 26.6357 14.448 27.2351 14.448 32.0023C14.448 36.7696 14.4689 37.369 14.5525 39.2438C14.6362 41.1117 14.9359 42.3872 15.368 43.5093C15.8141 44.6662 16.4204 45.642 17.3962 46.6178C18.3719 47.5935 19.3547 48.1929 20.5046 48.6459C21.6198 49.078 22.8952 49.3777 24.7701 49.4614C26.6449 49.545 27.2374 49.5659 32.0116 49.5659C36.7858 49.5659 37.3782 49.545 39.2531 49.4614C41.121 49.3777 42.3964 49.078 43.5185 48.6459C44.6755 48.1999 45.6512 47.5935 46.627 46.6178C47.6028 45.642 48.2021 44.6593 48.6552 43.5093C49.0873 42.3941 49.387 41.1187 49.4706 39.2438C49.5543 37.369 49.5752 36.7766 49.5752 32.0023C49.5752 27.2281 49.5543 26.6357 49.4706 24.7609C49.387 22.893 49.0873 21.6175 48.6552 20.4954C48.2091 19.3385 47.6028 18.3627 46.627 17.3869C45.6512 16.4112 44.6685 15.8118 43.5185 15.3588C42.4034 14.9266 41.1279 14.627 39.2531 14.5433C37.3713 14.4666 36.7719 14.4457 32.0046 14.4457Z" fill="white"/>
<path d="M32.0046 22.9905C27.0282 22.9905 22.9858 27.026 22.9858 32.0093C22.9858 36.9926 27.0213 41.028 32.0046 41.028C36.9879 41.028 41.0234 36.9926 41.0234 32.0093C41.0234 27.026 36.9879 22.9905 32.0046 22.9905ZM32.0046 37.8568C28.7707 37.8568 26.1501 35.2363 26.1501 32.0023C26.1501 28.7684 28.7707 26.1478 32.0046 26.1478C35.2385 26.1478 37.8591 28.7684 37.8591 32.0023C37.8591 35.2363 35.2385 37.8568 32.0046 37.8568Z" fill="white"/>
<path d="M41.379 24.7329C42.5415 24.7329 43.4839 23.7906 43.4839 22.6281C43.4839 21.4656 42.5415 20.5233 41.379 20.5233C40.2165 20.5233 39.2742 21.4656 39.2742 22.6281C39.2742 23.7906 40.2165 24.7329 41.379 24.7329Z" fill="white"/>
<rect x="0.5" y="0.5" width="63" height="63" rx="31.5" stroke="#98A2B3"/>
</svg>
