<svg width="64" height="64" viewBox="0 0 64 64" fill="none" xmlns="http://www.w3.org/2000/svg">
<rect x="2.74292" y="2.74286" width="58.5143" height="58.5143" rx="29.2571" fill="white"/>
<g clip-path="url(#clip0_21_8742)">
<path d="M34.7051 32C34.7051 33.4941 33.4942 34.705 32 34.705C30.5058 34.705 29.2949 33.4941 29.2949 32C29.2949 30.5058 30.5058 29.2949 32 29.2949C33.4937 29.2949 34.7051 30.5062 34.7051 32Z" fill="#F8A4A7"/>
<path d="M34.7051 13.0989C34.7051 14.5931 33.4942 15.804 32 15.804C30.5058 15.804 29.2949 14.5926 29.2949 13.0989C29.2949 11.6052 30.5058 10.3938 32 10.3938C33.4937 10.3938 34.7051 11.6052 34.7051 13.0989Z" fill="#F8A4A7"/>
<path d="M34.7051 22.5495C34.7051 24.0436 33.4942 25.2545 32 25.2545C30.5058 25.2545 29.2949 24.0432 29.2949 22.5495C29.2949 21.0553 30.5058 19.8444 32 19.8444C33.4937 19.8444 34.7051 21.0557 34.7051 22.5495Z" fill="#ED1C24"/>
<path d="M24.892 14.2786C25.6391 15.5726 25.196 17.2271 23.902 17.9742C22.608 18.7213 20.9535 18.2777 20.2069 16.9842C19.4598 15.6902 19.9034 14.0361 21.1969 13.289C22.4904 12.5415 24.1449 12.9851 24.892 14.2786Z" fill="#ED1C24"/>
<path d="M16.9836 20.2068C18.2776 20.9539 18.7208 22.6085 17.9737 23.902C17.2266 25.1959 15.572 25.6391 14.2785 24.892C12.9846 24.1449 12.5414 22.4904 13.2885 21.1969C14.0351 19.9029 15.6897 19.4597 16.9836 20.2068Z" fill="#ED1C24"/>
<path d="M13.0989 29.2949C14.5931 29.2949 15.804 30.5062 15.804 32C15.804 33.4941 14.5926 34.705 13.0989 34.705C11.6047 34.705 10.3938 33.4941 10.3938 32C10.3938 30.5062 11.6047 29.2949 13.0989 29.2949Z" fill="#ED1C24"/>
<path d="M14.2785 39.108C15.5725 38.3609 17.2271 38.804 17.9737 40.098C18.7208 41.392 18.2776 43.0465 16.9836 43.7936C15.6897 44.5407 14.0351 44.0971 13.2885 42.8036C12.5414 41.5091 12.9846 39.8551 14.2785 39.108Z" fill="#ED1C24"/>
<path d="M20.2069 47.0163C20.9539 45.7223 22.6085 45.2791 23.902 46.0262C25.196 46.7733 25.6391 48.4279 24.892 49.7214C24.1449 51.0153 22.4904 51.4585 21.1969 50.7114C19.9034 49.9643 19.4598 48.3098 20.2069 47.0163Z" fill="#ED1C24"/>
<path d="M29.2949 50.901C29.2949 49.4073 30.5058 48.1959 32 48.1959C33.4942 48.1959 34.7051 49.4073 34.7051 50.901C34.7051 52.3952 33.4942 53.6061 32 53.6061C30.5058 53.6061 29.2949 52.3947 29.2949 50.901Z" fill="#ED1C24"/>
<path d="M39.1073 49.7214C38.3603 48.4274 38.8034 46.7729 40.0974 46.0258C41.3914 45.2787 43.0459 45.7223 43.793 47.0158C44.5401 48.3098 44.0965 49.9643 42.803 50.7109C41.5085 51.4585 39.854 51.0149 39.1073 49.7214Z" fill="#ED1C24"/>
<path d="M47.0157 43.7931C45.7218 43.046 45.2786 41.3915 46.0257 40.098C46.7728 38.804 48.4273 38.3609 49.7208 39.108C51.0148 39.8551 51.458 41.5096 50.7109 42.8031C49.9638 44.0971 48.3097 44.5402 47.0157 43.7931Z" fill="#ED1C24"/>
<path d="M50.901 34.705C49.4068 34.705 48.1959 33.4941 48.1959 32C48.1959 30.5058 49.4073 29.2949 50.901 29.2949C52.3947 29.2949 53.6061 30.5058 53.6061 32C53.6061 33.4941 52.3952 34.705 50.901 34.705Z" fill="#F8A4A7"/>
<path d="M49.7208 24.892C48.4269 25.6391 46.7723 25.1959 46.0257 23.902C45.2786 22.608 45.7218 20.9535 47.0157 20.2068C48.3097 19.4597 49.9643 19.9029 50.7109 21.1969C51.458 22.4908 51.0148 24.1454 49.7208 24.892Z" fill="#F8A4A7"/>
<path d="M43.7925 16.9837C43.0454 18.2777 41.3909 18.7208 40.0969 17.9737C38.8029 17.2266 38.3598 15.5721 39.1069 14.2781C39.854 12.9841 41.5085 12.541 42.802 13.2881C44.0965 14.0356 44.5396 15.6902 43.7925 16.9837Z" fill="#F8A4A7"/>
<path d="M25.1682 24.9319C26.4622 25.679 26.9053 27.333 26.1582 28.627C25.4112 29.921 23.7566 30.3641 22.4631 29.617C21.1691 28.8699 20.726 27.2159 21.4731 25.9219C22.2202 24.6284 23.8742 24.1852 25.1682 24.9319Z" fill="#ED1C24"/>
<path d="M22.463 34.3824C23.7569 33.6353 25.4115 34.0785 26.1586 35.3725C26.9057 36.6664 26.462 38.321 25.1685 39.0681C23.8746 39.8152 22.22 39.3715 21.4734 38.078C20.7258 36.7841 21.169 35.1295 22.463 34.3824Z" fill="#ED1C24"/>
<path d="M29.2949 41.4505C29.2949 39.9563 30.5058 38.7454 32 38.7454C33.4942 38.7454 34.7051 39.9563 34.7051 41.4505C34.7051 42.9447 33.4942 44.1556 32 44.1556C30.5058 44.1556 29.2949 42.9447 29.2949 41.4505Z" fill="#ED1C24"/>
<path d="M38.8313 39.068C37.5373 38.321 37.0941 36.6664 37.8412 35.3729C38.5883 34.0789 40.2429 33.6358 41.5364 34.3829C42.8303 35.13 43.2735 36.7845 42.5264 38.078C41.7798 39.3715 40.1252 39.8151 38.8313 39.068Z" fill="#ED1C24"/>
<path d="M41.5365 29.6175C40.2425 30.3646 38.588 29.9215 37.8409 28.6275C37.0938 27.3335 37.5374 25.679 38.8309 24.9324C40.1249 24.1853 41.7795 24.6284 42.5261 25.9224C43.2736 27.2159 42.8305 28.8704 41.5365 29.6175Z" fill="#ED1C24"/>
</g>
<rect x="0.5" y="0.5" width="63" height="63" rx="31.5" stroke="#98A2B3"/>
<defs>
<clipPath id="clip0_21_8742">
<rect width="43.8857" height="43.8857" fill="white" transform="translate(10.0571 10.0571)"/>
</clipPath>
</defs>
</svg>
