<svg width="64" height="64" viewBox="0 0 64 64" fill="none" xmlns="http://www.w3.org/2000/svg">
<mask id="mask0_375_12081" style="mask-type:alpha" maskUnits="userSpaceOnUse" x="5" y="5" width="54" height="54">
<path fill-rule="evenodd" clip-rule="evenodd" d="M5.33398 5.33398H58.5596V58.5335H5.33398V5.33398Z" fill="white"/>
</mask>
<g mask="url(#mask0_375_12081)">
<path fill-rule="evenodd" clip-rule="evenodd" d="M20.4007 9.3335C13.678 9.3335 9.33398 13.9388 9.33398 21.0642V42.8028C9.33398 49.9308 13.678 54.5335 20.4007 54.5335H43.4673C50.206 54.5335 54.5606 49.9308 54.5606 42.8028V21.0642C54.5606 13.9388 50.206 9.3335 43.4673 9.3335H20.4007ZM43.4673 58.5335H20.4007C11.3873 58.5335 5.33398 52.2108 5.33398 42.8028V21.0642C5.33398 11.6562 11.3873 5.3335 20.4007 5.3335H43.4673C52.494 5.3335 58.5606 11.6562 58.5606 21.0642V42.8028C58.5606 52.2108 52.494 58.5335 43.4673 58.5335Z" fill="#475467"/>
</g>
<path fill-rule="evenodd" clip-rule="evenodd" d="M14.083 45.8146C13.587 45.8146 13.0937 45.6332 12.707 45.2652C11.9044 44.5079 11.8724 43.2386 12.6324 42.4412L16.707 38.1399C18.8644 35.8492 22.5044 35.7372 24.8057 37.8972L27.3604 40.4892C28.0724 41.2092 29.2297 41.2226 29.9444 40.5186C30.2137 40.2012 36.0217 33.1479 36.0217 33.1479C37.1257 31.8092 38.683 30.9826 40.4137 30.8119C42.147 30.6599 43.8297 31.1639 45.171 32.2652C45.2857 32.3586 45.3897 32.4492 51.2457 38.4626C52.0164 39.2519 52.003 40.5186 51.211 41.2892C50.4217 42.0652 49.1524 42.0412 48.3817 41.2519C48.3817 41.2519 42.9177 35.6439 42.5284 35.2652C42.115 34.9266 41.451 34.7292 40.7977 34.7932C40.1337 34.8599 39.5364 35.1772 39.1124 35.6919C32.915 43.2092 32.8404 43.2812 32.739 43.3799C30.451 45.6252 26.7577 45.5879 24.5097 43.2946C24.5097 43.2946 22.0297 40.7772 21.987 40.7266C21.371 40.1559 20.2724 40.1932 19.6137 40.8892L15.5337 45.1906C15.139 45.6066 14.611 45.8146 14.083 45.8146Z" fill="#475467"/>
<path fill-rule="evenodd" clip-rule="evenodd" d="M22.8202 21.6772C21.3455 21.6772 20.1455 22.8772 20.1455 24.3546C20.1455 25.8319 21.3455 27.0346 22.8228 27.0346C24.3002 27.0346 25.5028 25.8319 25.5028 24.3546C25.5028 22.8799 24.3002 21.6799 22.8202 21.6772ZM22.8228 31.0346C19.1402 31.0346 16.1455 28.0372 16.1455 24.3546C16.1455 20.6719 19.1402 17.6772 22.8228 17.6772C26.5082 17.6799 29.5028 20.6772 29.5028 24.3546C29.5028 28.0372 26.5055 31.0346 22.8228 31.0346Z" fill="#475467"/>
</svg>
