<svg width="64" height="64" viewBox="0 0 64 64" fill="none" xmlns="http://www.w3.org/2000/svg">
<path d="M2.74292 32C2.74292 15.8417 15.8418 2.74286 32.0001 2.74286C48.1583 2.74286 61.2572 15.8417 61.2572 32C61.2572 48.1583 48.1583 61.2571 32.0001 61.2571C15.8418 61.2571 2.74292 48.1583 2.74292 32Z" fill="#FF0000"/>
<path d="M52.0389 21.9508C51.5569 20.1604 50.1452 18.7487 48.3548 18.2667C45.0838 17.3715 31.9999 17.3715 31.9999 17.3715C31.9999 17.3715 18.916 17.3715 15.645 18.2322C13.889 18.7143 12.4429 20.1604 11.9609 21.9508C11.1001 25.2218 11.1001 32.0048 11.1001 32.0048C11.1001 32.0048 11.1001 38.8222 11.9609 42.0587C12.4429 43.8491 13.8546 45.2608 15.645 45.7429C18.9504 46.6381 31.9999 46.6381 31.9999 46.6381C31.9999 46.6381 45.0838 46.6381 48.3548 45.7773C50.1452 45.2952 51.5569 43.8836 52.0389 42.0931C52.8997 38.8222 52.8997 32.0392 52.8997 32.0392C52.8997 32.0392 52.9341 25.2218 52.0389 21.9508Z" fill="white"/>
<path d="M27.8337 38.2712L38.714 32.0047L27.8337 25.7382V38.2712Z" fill="#FF0000"/>
<g style="mix-blend-mode:multiply">
<rect x="0.5" y="0.5" width="63" height="63" rx="31.5" stroke="#98A2B3"/>
</g>
</svg>
